<?xml version="1.0" standalone="no"?>
<!DOCTYPE svg PUBLIC "-//W3C//DTD SVG 20010904//EN"
 "http://www.w3.org/TR/2001/REC-SVG-20010904/DTD/svg10.dtd">
<svg version="1.0" xmlns="http://www.w3.org/2000/svg"
 width="600.000000pt" height="600.000000pt" viewBox="0 0 600.000000 600.000000"
 preserveAspectRatio="xMidYMid meet">
<metadata>
Created by potrace 1.11, written by Peter Selinger 2001-2013
</metadata>
<g transform="translate(0.000000,600.000000) scale(0.100000,-0.100000)"
fill="#000000" stroke="none">
<path d="M169 5172 l-67 -3 -6 -62 c-7 -79 -7 -886 1 -949 l6 -48 148 0 149 0
0 -1110 0 -1110 -149 0 -148 0 -6 -38 c-8 -51 -9 -861 -1 -944 l7 -68 1074 0
1073 0 -2 522 -3 523 -157 3 -158 3 0 409 c0 226 4 410 8 410 9 0 52 -55 52
-65 0 -3 13 -23 29 -43 41 -54 200 -271 246 -338 22 -31 58 -80 80 -108 22
-28 56 -74 75 -101 19 -28 74 -104 122 -170 48 -66 117 -160 153 -210 36 -49
101 -139 145 -200 44 -60 80 -112 80 -115 0 -3 20 -27 44 -54 l43 -50 16 30
c9 17 23 37 32 44 9 8 57 72 107 144 50 72 94 133 98 136 6 5 103 140 140 194
8 13 35 50 60 82 25 33 65 89 90 124 56 79 155 214 190 260 14 19 53 73 85
120 33 47 66 93 75 102 8 9 42 55 75 102 33 47 63 86 66 86 18 0 26 -739 8
-772 -9 -16 -26 -18 -154 -18 l-145 0 0 -72 c0 -40 0 -251 -1 -468 0 -217 0
-421 0 -452 l1 -58 1080 0 1080 0 0 525 0 525 -160 0 -160 0 0 1110 0 1110 83
1 c45 0 117 0 160 -1 l77 -1 0 530 0 531 -849 0 -849 0 -21 -32 c-28 -45 -48
-72 -101 -143 -25 -33 -61 -82 -80 -110 -18 -27 -37 -52 -40 -55 -4 -3 -29
-36 -55 -75 -27 -38 -64 -91 -84 -117 -20 -25 -61 -81 -91 -124 -30 -42 -78
-109 -107 -148 -28 -39 -75 -102 -103 -141 -28 -38 -94 -129 -148 -202 -175
-238 -367 -503 -370 -513 -4 -10 -92 107 -317 414 -156 214 -234 319 -250 339
-15 17 -43 56 -121 170 -21 28 -58 79 -84 112 -26 33 -86 114 -133 180 -48 66
-124 170 -168 230 -44 61 -88 121 -97 134 -9 13 -28 37 -42 52 l-25 28 -770 3
c-424 2 -800 2 -836 0z m1442 -138 l76 -6 49 -63 c27 -34 77 -103 111 -152 34
-48 73 -102 88 -118 14 -17 38 -48 53 -70 15 -22 70 -98 123 -170 53 -71 119
-163 148 -204 30 -41 58 -79 63 -85 11 -13 67 -89 128 -175 25 -34 81 -111
125 -170 44 -59 105 -142 135 -184 30 -43 75 -104 100 -136 25 -32 76 -102
114 -155 38 -53 73 -96 78 -96 5 0 14 11 20 25 6 14 14 25 18 25 3 0 30 34 60
76 30 42 70 96 89 121 19 25 77 105 130 178 101 138 212 289 323 439 37 50 77
105 88 121 102 145 303 422 322 444 13 15 41 53 63 86 49 75 128 179 138 183
4 2 7 8 7 13 0 5 14 25 32 45 l32 35 691 -2 c379 -1 698 -3 708 -6 16 -4 17
-31 17 -394 l0 -389 -155 0 -155 0 -2 -1107 c0 -610 -1 -1130 -1 -1158 1 -27
1 -89 2 -137 l1 -88 155 0 155 0 0 -388 0 -389 -187 -7 c-104 -3 -513 -6 -910
-6 -672 1 -723 2 -732 18 -10 19 -14 589 -5 699 l6 71 151 1 c83 1 152 3 154
5 5 4 4 1409 -1 1413 -2 2 -18 -15 -35 -39 -17 -24 -88 -121 -158 -217 -206
-280 -311 -424 -335 -459 -13 -19 -49 -67 -80 -108 -32 -40 -58 -76 -58 -79 0
-3 -30 -45 -67 -95 -38 -49 -79 -106 -93 -125 -14 -20 -42 -57 -62 -83 -21
-25 -44 -60 -52 -77 -8 -17 -26 -41 -40 -54 -14 -14 -26 -30 -26 -38 0 -7 -9
-18 -20 -25 -11 -7 -20 -16 -20 -21 0 -8 -112 -165 -148 -206 -22 -26 -23 -26
-38 -6 -16 21 -179 243 -384 524 -69 95 -161 221 -205 280 -44 60 -98 134
-120 165 -22 31 -43 56 -47 56 -4 0 -8 6 -8 13 0 7 -9 23 -21 36 -11 12 -59
76 -106 143 -46 66 -93 130 -104 141 -10 11 -21 29 -25 39 -3 10 -9 18 -14 18
-5 0 -11 9 -15 19 -3 10 -16 30 -29 42 -12 13 -45 56 -73 96 -28 40 -52 70
-55 68 -3 -3 -2 -1094 1 -1377 l1 -48 150 0 150 0 0 -389 c0 -302 -3 -390 -12
-393 -7 -3 -417 -6 -910 -7 l-898 -3 0 396 0 396 155 0 155 0 0 1245 0 1245
-155 0 -155 0 0 389 0 390 28 3 c48 6 1244 8 1323 2z"/>
<path d="M478 4892 l-48 -3 0 -245 0 -244 155 0 155 0 0 -1390 0 -1390 -155 0
-155 0 0 -249 c0 -225 2 -250 17 -253 9 -2 340 -2 735 0 l718 2 -2 253 -3 252
-147 -3 -148 -3 0 1043 c0 990 1 1042 18 1022 65 -81 112 -144 112 -152 0 -5
7 -12 15 -16 8 -3 15 -10 15 -16 0 -6 5 -16 10 -23 6 -7 38 -50 72 -97 34 -47
77 -103 95 -124 18 -22 33 -46 33 -53 0 -7 4 -13 9 -13 5 0 28 -30 52 -67 24
-37 65 -93 92 -125 26 -31 47 -60 47 -63 0 -3 8 -15 18 -25 10 -11 45 -59 77
-107 33 -48 70 -98 82 -112 13 -13 33 -41 45 -60 12 -20 41 -59 65 -87 24 -28
43 -54 43 -58 0 -3 20 -32 45 -64 25 -31 45 -63 45 -69 0 -7 4 -13 8 -13 5 0
21 -18 38 -41 16 -22 46 -63 67 -89 20 -27 37 -52 37 -55 0 -4 6 -13 13 -20
18 -21 28 -34 72 -95 22 -30 48 -64 58 -75 10 -11 38 -50 63 -87 24 -38 49
-68 54 -68 6 0 18 12 28 28 9 15 55 79 102 142 98 131 133 181 192 265 23 33
44 62 47 65 4 3 24 31 45 63 22 31 43 57 47 57 4 0 11 10 15 22 3 12 15 31 26
42 10 11 37 49 60 83 23 35 45 63 50 63 4 0 8 6 8 14 0 8 4 16 8 18 5 2 23 24
40 50 18 25 38 52 45 60 7 7 32 40 54 73 22 34 48 67 57 74 9 7 16 20 16 27 0
8 11 24 24 35 14 12 37 41 52 65 16 24 32 44 36 44 4 0 8 5 8 11 0 6 8 21 18
34 9 12 24 33 32 45 8 12 20 28 25 34 6 6 22 30 38 54 15 23 32 42 37 42 6 0
10 5 10 10 0 6 5 16 10 23 6 7 33 44 60 82 27 39 54 75 59 82 6 6 29 38 51 70
22 32 52 72 65 88 l25 30 0 -1042 0 -1043 -155 0 -155 0 0 -250 0 -250 25 0
c14 0 86 -1 160 -1 74 0 398 1 719 1 l583 0 -2 243 c-2 133 -4 245 -4 249 -1
4 -70 9 -153 10 l-153 3 -3 1377 -2 1377 42 5 c24 3 93 8 153 11 61 4 111 8
113 9 4 5 3 478 -1 483 -4 3 -925 6 -1102 4 l-50 -1 -60 -86 c-33 -47 -66 -93
-73 -102 -91 -123 -146 -198 -182 -252 -24 -36 -58 -83 -76 -105 -18 -22 -75
-101 -127 -175 -52 -74 -101 -142 -109 -150 -7 -8 -35 -47 -62 -85 -28 -39
-54 -71 -58 -73 -4 -2 -8 -8 -8 -12 0 -10 -101 -152 -126 -177 -9 -10 -32 -40
-50 -68 -17 -27 -41 -61 -53 -74 -12 -13 -21 -28 -21 -32 0 -4 -6 -14 -13 -21
-7 -7 -35 -44 -62 -83 -27 -38 -59 -80 -72 -92 -13 -12 -23 -26 -23 -31 0 -10
-71 -105 -82 -110 -5 -2 -8 -8 -8 -13 0 -5 -30 -50 -67 -100 l-68 -90 -18 23
c-10 13 -29 36 -43 52 -13 15 -24 30 -24 33 0 2 -34 49 -75 103 -41 54 -75
103 -75 109 0 5 -4 11 -8 13 -4 2 -21 21 -37 43 -17 22 -33 44 -38 50 -106
139 -157 210 -157 220 0 7 -4 15 -8 17 -8 3 -74 86 -102 128 -8 12 -21 28 -27
36 -7 7 -13 17 -13 23 0 6 -3 11 -7 11 -5 0 -19 17 -33 38 -13 20 -69 97 -123
169 -54 73 -112 154 -130 181 -18 27 -44 64 -60 83 -24 29 -174 235 -237 324
-34 48 -167 228 -187 253 l-18 23 -530 2 c-291 1 -551 1 -577 -1z"/>
</g>
</svg>
